<?xml version="1.0" encoding="UTF-8"?>
<svg version="1.1" xmlns="http://www.w3.org/2000/svg" width="512" height="512">
<path d="M0 0 C1.63309093 -0.00417981 3.26617895 -0.00966086 4.89926165 -0.01631981 C9.35827209 -0.03070842 13.81709665 -0.0265504 18.27611697 -0.019153 C23.0962963 -0.01440722 27.91643623 -0.02694366 32.73660278 -0.03717041 C42.16887874 -0.05433651 51.60108802 -0.05520291 61.03337554 -0.04995751 C68.70316225 -0.04591028 76.3729293 -0.04736593 84.04271507 -0.05270576 C85.68234457 -0.0538284 85.68234457 -0.0538284 87.35509789 -0.05497371 C89.57596551 -0.05650525 91.79683314 -0.05804359 94.01770075 -0.05958868 C114.82887802 -0.07330595 135.64001767 -0.06788159 156.45119407 -0.05640347 C175.47132249 -0.04647324 194.4913536 -0.05940951 213.51146702 -0.08333766 C233.06227401 -0.10774727 252.61303572 -0.11733186 272.16385764 -0.11068493 C283.13174659 -0.10719668 294.09956073 -0.10939867 305.06743813 -0.12693596 C314.40469083 -0.14168127 323.74181605 -0.142263 333.07906631 -0.12486505 C337.83843908 -0.11637164 342.59758433 -0.11416479 347.35694504 -0.1295166 C351.7225472 -0.14342339 356.08772823 -0.13852421 360.4533064 -0.11927737 C362.02386249 -0.11553531 363.59445281 -0.11838696 365.16497824 -0.12888902 C386.42667126 -0.26083889 404.175156 6.28484164 419.62419128 21.38768005 C433.58122652 37.06250424 438.09794722 54.24771471 438.01187134 74.76348877 C438.01605115 76.3965797 438.02153219 78.02966772 438.02819115 79.66275042 C438.04257976 84.12176085 438.03842174 88.58058542 438.03102434 93.03960574 C438.02627856 97.85978507 438.038815 102.679925 438.04904175 107.50009155 C438.06620785 116.93236751 438.06707425 126.36457679 438.06182884 135.79686431 C438.05778162 143.46665102 438.05923727 151.13641807 438.0645771 158.80620384 C438.06532552 159.89929017 438.06607395 160.9923765 438.06684505 162.11858666 C438.06837658 164.33945428 438.06991493 166.56032191 438.07146002 168.78118952 C438.08517729 189.59236679 438.07975293 210.40350644 438.0682748 231.21468284 C438.05834458 250.23481126 438.07128085 269.25484237 438.095209 288.27495579 C438.11961861 307.82576278 438.1292032 327.37652449 438.12255627 346.92734641 C438.11906802 357.89523536 438.12127001 368.8630495 438.1388073 379.8309269 C438.15355261 389.1681796 438.15413434 398.50530482 438.13673639 407.84255508 C438.12824298 412.60192785 438.12603613 417.3610731 438.14138794 422.12043381 C438.15529472 426.48603597 438.15039554 430.851217 438.1311487 435.21679517 C438.12740664 436.78735126 438.1302583 438.35794158 438.14076035 439.92846701 C438.27039986 460.81787843 431.81712026 478.71032685 417.15837097 493.91697693 C402.34632593 508.11617478 384.22616874 512.85612615 364.29943848 512.78208923 C362.65967317 512.78698504 361.01991132 512.79317802 359.38015527 512.80054712 C354.89801916 512.81688262 350.41605968 512.81464178 345.93390429 512.80917215 C341.09050717 512.80649402 336.2471563 512.82104852 331.40377808 512.83326721 C321.9235758 512.85429107 312.44343471 512.85886378 302.96321187 512.85707933 C295.25384012 512.85577005 287.54448741 512.85958432 279.83511925 512.86700439 C277.61168852 512.86910367 275.38825778 512.87120127 273.16482705 512.87329721 C271.50464708 512.87486251 271.50464708 512.87486251 269.81092813 512.87645942 C248.89194996 512.89534987 227.97300687 512.8943154 207.05402371 512.88749009 C187.93749167 512.88191682 168.82109374 512.90273305 149.70459304 512.93585056 C130.05550038 512.96962533 110.40647189 512.98475109 90.75734967 512.98013353 C79.73406072 512.97789251 68.71089569 512.98307815 57.68763161 513.00802612 C48.30169021 513.02908828 38.91594065 513.03258264 29.52999125 513.01372653 C24.74614969 513.00459859 19.96266534 513.00333495 15.17885208 513.02408218 C10.78964382 513.04290656 6.40108246 513.03816172 2.01189794 513.01553637 C0.43388958 513.0113793 -1.14416952 513.01545186 -2.72212406 513.02913231 C-23.58560651 513.19752736 -41.23090332 506.01534141 -56.37580872 491.38768005 C-70.34178911 475.72950265 -74.8495146 458.51571598 -74.76348877 438.01187134 C-74.76766858 436.37878041 -74.77314963 434.74569239 -74.77980858 433.11260968 C-74.79419719 428.65359925 -74.79003917 424.19477469 -74.78264177 419.73575437 C-74.77789599 414.91557504 -74.79043243 410.0954351 -74.80065918 405.27526855 C-74.81782528 395.8429926 -74.81869168 386.41078332 -74.81344628 376.9784958 C-74.80939905 369.30870909 -74.8108547 361.63894204 -74.81619453 353.96915627 C-74.81694296 352.87606994 -74.81769138 351.78298361 -74.81846248 350.65677345 C-74.81999402 348.43590582 -74.82153236 346.2150382 -74.82307745 343.99417058 C-74.83679472 323.18299331 -74.83137036 302.37185367 -74.81989224 281.56067727 C-74.80996201 262.54054885 -74.82289828 243.52051773 -74.84682643 224.50040432 C-74.87123604 204.94959733 -74.88082063 185.39883562 -74.8741737 165.8480137 C-74.87068545 154.88012475 -74.87288744 143.91231061 -74.89042473 132.94443321 C-74.90517004 123.60718051 -74.90575177 114.27005529 -74.88835382 104.93280502 C-74.87986041 100.17343226 -74.87765356 95.41428701 -74.89300537 90.6549263 C-74.90691216 86.28932414 -74.90201297 81.92414311 -74.88276614 77.55856494 C-74.87902408 75.98800885 -74.88187573 74.41741853 -74.89237779 72.84689309 C-75.02432766 51.58520008 -68.47864713 33.83671533 -53.37580872 18.38768005 C-37.70098452 4.43064482 -20.51577406 -0.08607588 0 0 Z " fill="#CAF2FD" transform="translate(74.37580871582031,-0.3876800537109375)"/>
<path d="M0 0 C1.63309093 -0.00417981 3.26617895 -0.00966086 4.89926165 -0.01631981 C9.35827209 -0.03070842 13.81709665 -0.0265504 18.27611697 -0.019153 C23.0962963 -0.01440722 27.91643623 -0.02694366 32.73660278 -0.03717041 C42.16887874 -0.05433651 51.60108802 -0.05520291 61.03337554 -0.04995751 C68.70316225 -0.04591028 76.3729293 -0.04736593 84.04271507 -0.05270576 C85.68234457 -0.0538284 85.68234457 -0.0538284 87.35509789 -0.05497371 C89.57596551 -0.05650525 91.79683314 -0.05804359 94.01770075 -0.05958868 C114.82887802 -0.07330595 135.64001767 -0.06788159 156.45119407 -0.05640347 C175.47132249 -0.04647324 194.4913536 -0.05940951 213.51146702 -0.08333766 C233.06227401 -0.10774727 252.61303572 -0.11733186 272.16385764 -0.11068493 C283.13174659 -0.10719668 294.09956073 -0.10939867 305.06743813 -0.12693596 C314.40469083 -0.14168127 323.74181605 -0.142263 333.07906631 -0.12486505 C337.83843908 -0.11637164 342.59758433 -0.11416479 347.35694504 -0.1295166 C351.7225472 -0.14342339 356.08772823 -0.13852421 360.4533064 -0.11927737 C362.02386249 -0.11553531 363.59445281 -0.11838696 365.16497824 -0.12888902 C386.42667126 -0.26083889 404.175156 6.28484164 419.62419128 21.38768005 C433.62714724 37.11407674 438.11649161 54.31624473 437.96476746 74.89646912 C437.96391942 76.52383407 437.96439976 78.15120016 437.96609497 79.77856445 C437.96694948 84.16004826 437.94941275 88.54128155 437.9283731 92.92270756 C437.90951473 97.51508346 437.90784868 102.10746623 437.90429688 106.69987488 C437.89500316 115.37998372 437.87042588 124.0599781 437.84024841 132.74003673 C437.80662078 142.62886521 437.79019743 152.5176994 437.7751621 162.40657091 C437.74387372 182.73367098 437.69116567 203.06066828 437.62419128 223.38768005 C436.96632 223.10003123 436.30844872 222.81238241 435.63064194 222.51601696 C432.61705681 221.19929597 429.60256657 219.88465958 426.58805847 218.5700531 C425.55325348 218.11754936 424.51844849 217.66504562 423.45228577 217.19882965 C416.00321649 213.95278847 408.54053422 210.90087094 400.87419128 208.20018005 C399.71862732 207.79146667 398.56306335 207.3827533 397.3724823 206.96165466 C378.90591524 200.57760943 360.02723064 195.77545944 340.62419128 193.38768005 C339.96346619 193.29486755 339.30274109 193.20205505 338.62199402 193.10643005 C296.20590588 187.59209242 250.50247592 197.32528637 216.18278503 223.3837738 C215.3384491 224.04506287 214.49411316 224.70635193 213.62419128 225.38768005 C212.76954285 226.03865662 211.91489441 226.68963318 211.03434753 227.3603363 C199.83827148 236.15607887 189.69208977 246.41369723 180.86247253 257.5712738 C170.58096303 270.50839134 159.6562244 282.16473457 146.62419128 292.38768005 C145.25327332 293.48402771 145.25327332 293.48402771 143.85466003 294.6025238 C125.71412167 308.72286078 105.12932347 318.52560871 82.62419128 323.38768005 C81.85558777 323.56355652 81.08698425 323.73943298 80.29508972 323.92063904 C72.21875668 325.60808544 64.21358494 325.7439406 55.99919128 325.70018005 C54.93554855 325.69744583 54.93554855 325.69744583 53.85041809 325.69465637 C43.13469447 325.64827319 33.05319333 325.02659757 22.62419128 322.38768005 C21.06698368 322.02013621 19.50968743 321.6529678 17.95231628 321.28611755 C-14.5134048 313.39995794 -50.49757875 297.26591002 -74.37580872 273.38768005 C-74.57801096 270.5881564 -74.65380783 267.88697741 -74.64323425 265.08587646 C-74.65003092 263.78224278 -74.65003092 263.78224278 -74.6569649 262.45227307 C-74.66968633 259.52224167 -74.6679835 256.59239432 -74.66633606 253.66233826 C-74.67231697 251.5681789 -74.6791215 249.47402177 -74.68669128 247.37986755 C-74.70441509 241.67460361 -74.70904968 235.96939961 -74.71032286 230.2641108 C-74.71221988 225.49855831 -74.71957618 220.73301984 -74.72666705 215.96747273 C-74.7429771 204.7125965 -74.74783407 193.45775228 -74.74641418 182.2028656 C-74.74521589 170.6128125 -74.76624916 159.02294657 -74.79790151 147.43294078 C-74.82412212 137.47520237 -74.83477887 127.5175248 -74.83350337 117.55975217 C-74.83299491 111.61630928 -74.83861216 105.67303218 -74.85985947 99.72962379 C-74.8793361 94.12765207 -74.87930207 88.52600246 -74.8648262 82.92401886 C-74.86274781 80.8775275 -74.86738053 78.8310155 -74.87954712 76.78455925 C-75.00715213 53.81579218 -69.98862618 35.38130709 -53.37580872 18.38768005 C-37.70098452 4.43064482 -20.51577406 -0.08607588 0 0 Z " fill="#2CB6F7" transform="translate(74.37580871582031,-0.3876800537109375)"/>
<path d="M0 0 C11.90183474 8.32059405 21.44006981 20.29606979 24.65625 34.7265625 C26.81553338 50.79661383 24.42510786 65.7679098 14.99609375 79.29296875 C5.42309046 91.45745172 -6.5768954 99.06268926 -21.9375 101.75 C-37.45560936 103.423378 -51.13697926 99.88571412 -63.9375 90.75 C-75.68695575 81.03734102 -83.50966223 67.99108638 -85.16064453 52.68066406 C-86.32444127 36.679371 -82.00295237 22.50682107 -71.68359375 10.0234375 C-52.43180702 -10.43351726 -23.94041892 -14.28433897 0 0 Z " fill="#CAF2FD" transform="translate(142.9375,82.25)"/>
</svg>
